<svg width="200" height="200" viewBox="0 0 1000 1000" fill="none" xmlns="http://www.w3.org/2000/svg">
<g clip-path="url(#clip0_2_12)">
<rect x="12.5" y="12.5" width="975" height="975" rx="237.5" fill="#202420" stroke="#2D322D" stroke-width="25"/>
<path d="M330.303 438V270.93H298.403V339.433H251.128V270.93H219.114V438H251.128V365.595H298.403V438H330.303ZM443.328 403.117L453.081 438H487.046L433.345 270.93H404.084L349.351 438H383.315L393.184 403.117H443.328ZM401.101 375.693L418.657 314.189L435.754 375.693H401.101ZM618.315 385.676H586.072C585.766 390.725 584.924 395.047 583.547 398.642C582.17 402.237 580.296 405.183 577.925 407.478C575.553 409.772 572.685 411.455 569.319 412.526C565.953 413.597 562.166 414.133 557.959 414.133C554.823 414.133 551.954 413.789 549.353 413.1C546.829 412.335 544.534 411.188 542.468 409.658C540.556 408.281 538.835 406.56 537.305 404.494C535.851 402.429 534.589 400.057 533.518 397.38C531.988 393.479 530.841 388.927 530.076 383.725C529.387 378.447 529.043 372.48 529.043 365.825V343.105C529.043 338.209 529.272 333.658 529.731 329.45C530.19 325.166 530.917 321.265 531.912 317.746C533.212 313.233 534.933 309.293 537.075 305.927C539.294 302.485 541.971 299.846 545.107 298.01C546.943 296.939 548.932 296.136 551.074 295.6C553.293 295.065 555.664 294.797 558.188 294.797C562.931 294.797 566.986 295.447 570.352 296.748C573.794 297.972 576.663 299.807 578.958 302.255C581.176 304.78 582.859 307.916 584.006 311.665C585.23 315.413 585.995 319.773 586.301 324.746H618.43C617.665 316.025 615.829 308.184 612.922 301.223C610.015 294.261 606.038 288.371 600.989 283.552C595.94 278.732 589.82 275.022 582.629 272.421C575.515 269.82 567.368 268.52 558.188 268.52C551.992 268.52 546.178 269.323 540.747 270.93C535.392 272.46 530.458 274.678 525.945 277.585C520.896 281.027 516.383 285.235 512.405 290.207C508.427 295.179 505.214 300.84 502.766 307.189C500.624 312.391 499.018 318.052 497.947 324.172C496.876 330.215 496.34 336.603 496.34 343.334V365.825C496.34 373.015 496.914 379.824 498.062 386.25C499.285 392.675 501.007 398.566 503.225 403.92C505.52 409.275 508.312 414.171 511.602 418.608C514.967 423.045 518.792 426.831 523.076 429.968C527.743 433.334 532.983 435.935 538.796 437.771C544.687 439.53 551.074 440.41 557.959 440.41C566.68 440.41 574.635 439.147 581.826 436.623C589.017 434.022 595.213 430.35 600.415 425.607C605.617 420.865 609.748 415.127 612.808 408.396C615.944 401.664 617.78 394.09 618.315 385.676ZM693.245 369.382L734.553 438H772.878L714.587 344.826L770.813 270.93H731.34L690.72 327.041L675.574 347.465V270.93H643.215V438H675.574V388.774L693.245 369.382ZM254.341 686.726H279.241C288.344 686.726 296.567 685.425 303.911 682.824C311.255 680.223 317.528 676.59 322.729 671.923C327.855 667.333 331.794 661.864 334.548 655.515C337.379 649.165 338.794 642.242 338.794 634.746C338.794 626.713 337.379 619.408 334.548 612.829C331.794 606.25 327.855 600.59 322.729 595.847C317.528 591.18 311.255 587.547 303.911 584.946C296.567 582.268 288.344 580.93 279.241 580.93H222.097V748H254.341V686.726ZM254.341 660.563V607.092H279.241C283.831 607.092 287.808 607.819 291.174 609.272C294.54 610.725 297.371 612.714 299.666 615.239C301.884 617.763 303.529 620.708 304.6 624.074C305.747 627.44 306.321 631.074 306.321 634.975C306.321 638.341 305.747 641.592 304.6 644.729C303.529 647.788 301.884 650.504 299.666 652.875C297.371 655.247 294.54 657.121 291.174 658.498C287.808 659.875 283.831 660.563 279.241 660.563H254.341ZM368.284 580.93V606.977H400.068V722.067H368.284V748H464.9V722.067H432.312V606.977H464.9V580.93H368.284ZM535.698 729.526C535.698 735.416 537.687 740.35 541.665 744.328C545.643 748.306 551.036 750.295 557.844 750.295C564.576 750.295 569.931 748.344 573.909 744.443C577.963 740.465 579.99 735.493 579.99 729.526C579.99 723.559 578.001 718.549 574.023 714.494C570.122 710.44 564.729 708.413 557.844 708.413C550.883 708.413 545.452 710.478 541.55 714.609C537.649 718.663 535.698 723.636 535.698 729.526Z" fill="#487C47"/>
<rect x="643" y="581" width="138" height="167" fill="#487C47"/>
</g>
<defs>
<clipPath id="clip0_2_12">
<rect width="1000" height="1000" fill="white"/>
</clipPath>
</defs>
</svg>
